<svg xmlns="http://www.w3.org/2000/svg" version="1.1" xmlns:xlink="http://www.w3.org/1999/xlink" xmlns:svgjs="http://svgjs.com/svgjs" width="1440" height="560" preserveAspectRatio="none" viewBox="0 0 1440 560"><g mask="url(&quot;#SvgjsMask1009&quot;)" fill="none"><path d="M1492.12 139.42C1377.31 139.21 1265.18 69.42 1038.24 69.42 811.31 69.42 812.17 139.5 584.37 139.42 356.56 139.34 249.93-7.99 130.49-9.89" stroke="rgba(113, 44, 249, 0.21)" stroke-width="2"></path><path d="M1534.79 429.35C1370.54 428.8 1236.91 315.64 889.45 306.15 541.99 296.66 432.49-72.42 244.11-87.55" stroke="rgba(113, 44, 249, 0.21)" stroke-width="2"></path><path d="M1711.54 475.24C1566.43 473.02 1405.98 319.62 1159.4 296.04 912.82 272.46 990.11-27.71 883.33-68.61" stroke="rgba(113, 44, 249, 0.21)" stroke-width="2"></path><path d="M1507.65 125.77C1396.13 125.55 1287.38 55.77 1067.11 55.77 846.84 55.77 849.07 126.09 626.58 125.77 404.08 125.45 306.47-65.54 186.04-69.87" stroke="rgba(113, 44, 249, 0.21)" stroke-width="2"></path><path d="M1518.54 172.24C1350.2 173.58 1115 340.96 866.45 340.24 617.89 339.52 655.39 24.26 540.4-5.87" stroke="rgba(113, 44, 249, 0.21)" stroke-width="2"></path></g><defs><mask id="SvgjsMask1009"><rect width="1440" height="560" fill="#ffffff"></rect></mask></defs></svg>